<?xml version="1.0" encoding="utf-8"?>
<!-- Generator: Adobe Illustrator 17.0.0, SVG Export Plug-In . SVG Version: 6.00 Build 0)  -->
<!DOCTYPE svg PUBLIC "-//W3C//DTD SVG 1.0//EN" "http://www.w3.org/TR/2001/REC-SVG-20010904/DTD/svg10.dtd">
<svg version="1.0" id="Слой_1" xmlns="http://www.w3.org/2000/svg" xmlns:xlink="http://www.w3.org/1999/xlink" x="0px" y="0px"
	 width="277px" height="278px" viewBox="0 0 277 278" enable-background="new 0 0 277 278" xml:space="preserve">
<g>
	<path fill="#FEEFC3" d="M0,0h1c0,92.43,0.01,184.85-0.01,277.28L0.91,278H0V0L0,0z"/>
	<path fill="#FBC111" d="M1,0h276v1.67c-26.15,25.73-51.83,51.95-78,77.66c-13.18-13.61-32.15-20.8-50.95-20.99
		c-23.36-0.61-46.04,13.43-56.47,34.24c-2.27,4.17-3.49,8.78-5.28,13.15c-0.2,0.26-0.6,0.77-0.8,1.02c0.75,0.79,1.51,1.56,2.28,2.34
		c-0.17,0.52-0.5,1.58-0.67,2.11c-9.36-0.31-18.73-0.19-28.09-0.48c-5.59-0.52-11.03,3.62-11.83,9.2
		c-1.48,27.97,9.82,56.81,31.45,74.98c0.59,1.02,1.19,2.03,1.8,3.04c-20.57,20.93-41.49,41.51-62.17,62.33
		c-5.84,5.58-11.3,11.56-17.28,17.01C1.01,184.85,1,92.43,1,0L1,0z"/>
	<path fill="#FBB116" d="M199,79.33c26.17-25.71,51.85-51.93,78-77.66v138.62c-14.22-13.65-27.51-28.35-42.79-40.8
		c0.25-0.61,0.49-1.22,0.74-1.82c-9.18-2.65-18.56-4.84-27.5-8.22C204.61,86.1,202.24,82.35,199,79.33L199,79.33z"/>
	<path fill="#FFFFFF" d="M91.58,92.58c10.43-20.81,33.11-34.85,56.47-34.24c18.8,0.19,37.77,7.38,50.95,20.99
		c3.24,3.02,5.61,6.77,8.45,10.12c8.94,3.38,18.32,5.57,27.5,8.22c-0.25,0.6-0.49,1.21-0.74,1.82c-4.01,9.17-8.07,18.33-12.14,27.49
		c-1.38,2.82-1.15,6.04-1.47,9.08c-1.63,18.77-8.55,37.31-20.88,51.7c-11.15,13.18-26.77,22.46-43.65,26.06
		c-26.9,5.83-56.35-1.1-77.43-18.92c-21.63-18.17-32.93-47.01-31.45-74.98c0.8-5.58,6.24-9.72,11.83-9.2
		c9.36,0.29,18.73,0.17,28.09,0.48c26.64,0.23,53.27,0.74,79.9,1.04c4.56-0.19,9.91-0.18,13.15,3.59c3.88,4.1,2.95,10.16,2.25,15.24
		c-2.44,15.68-10.9,31.28-25.11,39.14c-11.11,6.3-24.65,6.31-36.78,3.36c-10.24-2.51-19.59-8.78-25.38-17.65
		c-2.96-4.65-5.25-9.69-7.95-14.49c8.17,0.73,16.39-0.14,24.55,0.68c7.17,6.9,15.64,14.92,26.43,13.76
		c10.37-1.09,16.79-10.64,20.77-19.34c-29.83-0.49-59.67-0.68-89.5-1.34c3.37,17.07,11.02,34.34,25.18,45.13
		c12.48,9.77,28.6,14.23,44.33,13.88c14.89-0.45,29.68-6.3,40.32-16.81c11.94-11.54,18.27-27.94,19.57-44.3
		c0.35-3.66-0.01-7.48,1.41-10.94c1.32-3.48,3.06-6.78,4.81-10.06c-3.47-1.29-7.08-2.28-10.42-3.91c-3.32-1.64-4.7-5.31-6.81-8.11
		c-8.4-11.82-22.66-18.54-36.93-19.47c-10.41-0.99-21.05,2.55-28.93,9.37c-5.65,4.68-9.84,10.87-12.87,17.51
		c-6.94,0.3-13.87-0.67-20.79-0.02c-0.68-0.57-1.35-1.14-2.01-1.73C88.09,101.36,89.31,96.75,91.58,92.58L91.58,92.58z"/>
	<path fill="#F89F1C" d="M121.97,89.97c7.88-6.82,18.52-10.36,28.93-9.37c14.27,0.93,28.53,7.65,36.93,19.47
		c2.11,2.8,3.49,6.47,6.81,8.11c3.34,1.63,6.95,2.62,10.42,3.91c-1.75,3.28-3.49,6.58-4.81,10.06c-1.42,3.46-1.06,7.28-1.41,10.94
		c-1.3,16.36-7.63,32.76-19.57,44.3c-10.64,10.51-25.43,16.36-40.32,16.81c-15.73,0.35-31.85-4.11-44.33-13.88
		c-14.16-10.79-21.81-28.06-25.18-45.13c29.83,0.66,59.67,0.85,89.5,1.34c-3.98,8.7-10.4,18.25-20.77,19.34
		c-10.79,1.16-19.26-6.86-26.43-13.76c-8.16-0.82-16.38,0.05-24.55-0.68c2.7,4.8,4.99,9.84,7.95,14.49
		c5.79,8.87,15.14,15.14,25.38,17.65c12.13,2.95,25.67,2.94,36.78-3.36c14.21-7.86,22.67-23.46,25.11-39.14
		c0.7-5.08,1.63-11.14-2.25-15.24c-3.24-3.77-8.59-3.78-13.15-3.59c-26.63-0.3-53.26-0.81-79.9-1.04c0.17-0.53,0.5-1.59,0.67-2.11
		c-0.77-0.78-1.53-1.55-2.28-2.34c0.2-0.25,0.6-0.76,0.8-1.02c0.66,0.59,1.33,1.16,2.01,1.73c6.92-0.65,13.85,0.32,20.79,0.02
		C112.13,100.84,116.32,94.65,121.97,89.97L121.97,89.97z"/>
	<path fill="#F8A01C" d="M234.21,99.49c15.28,12.45,28.57,27.15,42.79,40.8V278H162.3c-12.32-12.43-24.34-25.23-37.54-36.73
		c-8.66-8.7-17.35-17.37-26.11-25.97c-6.57-5.24-12.18-11.53-18.21-17.36c-0.61-1.01-1.21-2.02-1.8-3.04
		c21.08,17.82,50.53,24.75,77.43,18.92c16.88-3.6,32.5-12.88,43.65-26.06c12.33-14.39,19.25-32.93,20.88-51.7
		c0.32-3.04,0.09-6.26,1.47-9.08C226.14,117.82,230.2,108.66,234.21,99.49L234.21,99.49z"/>
	<path fill="#FAAF18" d="M80.44,197.94c6.03,5.83,11.64,12.12,18.21,17.36c8.76,8.6,17.45,17.27,26.11,25.97
		c13.2,11.5,25.22,24.3,37.54,36.73H0.91l0.08-0.72c5.98-5.45,11.44-11.43,17.28-17.01C38.95,239.45,59.87,218.87,80.44,197.94
		L80.44,197.94z"/>
</g>
</svg>
